<svg t="1664083367698" class="icon" viewBox="0 0 1024 1024" version="1.1" xmlns="http://www.w3.org/2000/svg" p-id="2046" width="128" height="128">
  <path d="M321.7 291L158.2 705.7h860c-19.5-86.5-40-145.6-61.5-177.2-26.3-38.6-60.4-69.5-102.3-92.6-41.9-23.1-155.2-34.1-219.4 44.2C538.1 611.4 471.6 611.8 398.4 610s-112-33.3-87.4-138c13.8-58.8 36.7-114.5 68.6-167.1 5.5-9.1 2.6-20.9-6.5-26.4-3-1.8-6.5-2.8-10-2.8h-18.9c-9.9 0-18.8 6.1-22.5 15.3z" fill="#00D8FF" p-id="2047"></path>
  <path d="M806.9 586.1m-117 0a117 117 0 1 0 234 0 117 117 0 1 0-234 0Z" fill="#55FDC3" p-id="2048"></path>
  <path d="M861.8 688.2m-141 0a141 141 0 1 0 282 0 141 141 0 1 0-282 0Z" fill="#FFFFFF" p-id="2049"></path>
  <path d="M861.8 847.2c-87.7 0-159-71.3-159-159s71.3-159 159-159 159 71.3 159 159-71.3 159-159 159z m0-282.1c-67.8 0-123 55.2-123 123s55.2 123 123 123 123-55.2 123-123-55.1-123-123-123z" fill="#00D8FF" p-id="2050"></path>
  <path d="M190.9 694.8m-134.5 0a134.5 134.5 0 1 0 269 0 134.5 134.5 0 1 0-269 0Z" fill="#FFFFFF" p-id="2051"></path>
  <path d="M190.9 847.3c-84.1 0-152.5-68.4-152.5-152.5s68.4-152.5 152.5-152.5 152.5 68.4 152.5 152.5-68.5 152.5-152.5 152.5z m0-269c-64.2 0-116.5 52.3-116.5 116.5s52.3 116.5 116.5 116.5S307.4 759 307.4 694.8s-52.3-116.5-116.5-116.5z" fill="#00D8FF" p-id="2052"></path>
  <path d="M205.7 354.2l30.6-70.8c6.3-14.7 24.2-21.7 39.9-15.8 15.7 5.9 23.3 22.6 16.9 37.2l-30.6 70.8c-6.3 14.6-24.2 21.7-39.9 15.8-15.6-5.9-23.2-22.6-16.9-37.2z" fill="#80F688" p-id="2053"></path>
  <path d="M726.2 312.5h160.6c20 0 36.2 16 36.2 35.8v13.4c0 19.8-16.2 35.8-36.2 35.8H726.2c-20 0-36.2-16-36.2-35.8v-13.4c0-19.8 16.2-35.8 36.2-35.8z" fill="#00A5FF" p-id="2054"></path>
  <path d="M340.3 179.9m-49 0a49 49 0 1 0 98 0 49 49 0 1 0-98 0Z" fill="#00A5FF" p-id="2055"></path>
  <path d="M805.1 721.3a74.5 72.5 0 1 0 149 0 74.5 72.5 0 1 0-149 0Z" fill="#F1F2F2" p-id="2056"></path>
  <path d="M86.3 682a59.5 55.5 0 1 0 119 0 59.5 55.5 0 1 0-119 0Z" fill="#F1F2F2" p-id="2057"></path>
</svg>