<svg t="1664087615935" class="icon" viewBox="0 0 1025 1024" version="1.1" xmlns="http://www.w3.org/2000/svg" p-id="8836" width="128" height="128">
  <path d="M655.044081 121.206645h-19.999941V45.657866c0-13.367961-10.875968-24.243929-24.243929-24.243929H331.692028c-13.367961 0-24.242929 10.875968-24.242929 24.243929v75.548779h-19.999941V45.657866c0-24.395929 19.847942-44.24387 44.24287-44.24387h279.108183c24.395929 0 44.24387 19.847942 44.24387 44.24387v75.548779z" fill="#12126D" p-id="8837"></path>
  <path d="M182.665465 1012.583033c-12.587963 0-22.828933-10.24197-22.828933-22.828933V115.002663c0-12.586963 10.24097-22.828933 22.828933-22.828933h570.720328c12.587963 0 22.828933 10.24197 22.828933 22.828933v874.751437c0 12.586963-10.24097 22.828933-22.828933 22.828933H182.665465z" fill="#FFFFFF" p-id="8838"></path>
  <path d="M753.384793 103.587697c6.186982 0 11.414967 5.228985 11.414966 11.414966v874.751437c0 6.186982-5.228985 11.413967-11.414966 11.413967H182.665465c-6.186982 0-11.414967-5.227985-11.414967-11.413967V115.002663c0-6.186982 5.228985-11.414967 11.414967-11.414966h570.719328m0-22.827934H182.665465c-18.833945 0-34.2439 15.408955-34.2439 34.2429v874.751437c0 18.833945 15.409955 34.2429 34.2439 34.2429h570.720328c18.833945 0 34.2439-15.408955 34.243899-34.2429V115.002663c-0.001-18.833945-15.410955-34.2429-34.244899-34.2429" fill="#12126D" p-id="8839"></path>
  <path d="M230.989323 185.485457h474.074611v733.78385H230.989323z" fill="#B4CEFC" p-id="8840"></path>
  <path d="M693.648968 907.85434H242.40329V196.899423h451.245678v710.954917z m22.828933-733.78385H219.574357v756.612783H716.477901V174.07049z" fill="#12126D" p-id="8841"></path>
  <path d="M299.688122 260.545237h337.589011v57.071832h-337.589011z" fill="#FFFFFF" p-id="8842"></path>
  <path d="M625.865166 306.203103H311.104089v-34.2429h314.761077v34.2429z m12.131965-57.071833H298.969124c-5.905983 0-10.694969 4.787986-10.694969 10.695969v58.507828c0 5.907983 4.788986 10.696969 10.694969 10.696969h339.027007c5.905983 0 10.696969-4.788986 10.696969-10.696969v-58.507828c0.001-5.907983-4.789986-10.695969-10.695969-10.695969" fill="#12126D" p-id="8843"></path>
  <path d="M299.688122 386.103869h337.589011v57.071833h-337.589011z" fill="#B4CEFC" p-id="8844"></path>
  <path d="M625.865166 431.762735H311.104089V397.518835h314.761077v34.2439z m12.131965-57.072833H298.969124c-5.905983 0-10.694969 4.787986-10.694969 10.695969v58.507829c0 5.907983 4.788986 10.695969 10.694969 10.695968h339.027007c5.905983 0 10.696969-4.787986 10.696969-10.695968v-58.507829c0.001-5.907983-4.789986-10.695969-10.695969-10.695969" fill="#12126D" p-id="8845"></path>
  <path d="M299.688122 511.662501h242.34629v57.071833H299.688122z" fill="#B4CEFC" p-id="8846"></path>
  <path d="M530.622445 557.320367H311.104089v-34.242899h219.518356v34.242899z m12.130965-57.071833H298.969124c-5.905983 0-10.693969 4.788986-10.693969 10.695969v58.508829c0 5.906983 4.787986 10.695969 10.693969 10.695968h243.784286c5.905983 0 10.696969-4.788986 10.696969-10.695968v-58.508829c0.001-5.906983-4.789986-10.695969-10.696969-10.695969" fill="#12126D" p-id="8847"></path>
  <path d="M209.350387 1012.583033c-104.479694 0-189.479445-84.999751-189.479445-189.479444s84.999751-189.479445 189.479445-189.479445c104.478694 0 189.478445 84.999751 189.478445 189.479445s-84.998751 189.479445-189.478445 189.479444" fill="#E0D224" p-id="8848"></path>
  <path d="M209.350387 645.03811c47.561861 0 92.27773 18.520946 125.910631 52.153847 33.632901 33.631901 52.153847 78.34677 52.153847 125.910632 0 47.561861-18.520946 92.27773-52.153847 125.910631s-78.34977 52.153847-125.910631 52.153847c-47.563861 0-92.27973-18.520946-125.912631-52.153847-33.630901-33.632901-52.151847-78.34977-52.151848-125.910631 0-47.563861 18.520946-92.27873 52.151848-125.910632 33.632901-33.631901 78.34877-52.153847 125.912631-52.153847m0-22.828933c-110.951675 0-200.894411 89.941736-200.894412 200.894412C8.456975 934.053264 98.398712 1023.997 209.350387 1023.997c110.949675 0 200.894411-89.943736 200.894411-200.894411 0-110.951675-89.944736-200.893411-200.894411-200.893412" fill="#12126D" p-id="8849"></path>
  <path d="M206.934394 810.002627c-10.07197-0.779998-17.946947-9.298973-17.946948-19.437943 0-10.798968 8.708974-19.584943 19.413943-19.584943 10.645969 0 19.306943 8.785974 19.306944 19.584943 0 6.134982 4.965985 11.124967 11.068967 11.124967 6.109982 0 11.080968-4.989985 11.080968-11.124967 0-18.744945-12.656963-35.311897-30.429911-40.294882v-9.043974c0-6.145982-4.970985-11.145967-11.146967-11.145967-6.049982 0.134-10.971968 5.151985-10.971968 11.187967v9.065974c-17.765948 4.970985-30.418911 21.528937-30.418911 40.273882 0 22.067935 17.06995 40.195882 38.612887 41.699878l0.013 0.140999h2.777992c0.101 0 0.220999-0.005 0.353999-0.019 10.36897 0.920997 19.059944 9.686972 19.059944 19.316944 0 10.793968-8.660975 19.575943-19.306944 19.575942-10.704969 0-19.413943-8.781974-19.413943-19.575942 0-6.138982-4.964985-11.133967-11.067967-11.133968-6.109982 0-11.081968 4.994985-11.081968 11.133968 0 18.731945 12.658963 35.290897 30.429911 40.272882v8.960973c0 6.144982 4.970985 11.142967 11.080968 11.142968s11.080968-4.997985 11.080967-11.142968v-9.065973c17.770948-4.971985 30.429911-21.530937 30.429911-40.274882-0.001-22.531934-19.602943-41.573878-42.924874-41.636878z" fill="#FFFFFF" p-id="8850"></path>
  <path d="M1001.329066 407.384806l-108.795681-74.382782c-15.021956-10.27297-35.504896-6.425981-45.791866 8.606975 0 0-293.51714 429.301742-297.524128 435.155725-3.991988 5.840983-2.478993 13.64296-2.478993 13.64296l13.70396 72.902787 7.590978 40.419881c1.682995 8.948974 10.28997 14.828957 19.225944 13.157962l40.396881-7.588978c0.023-0.005 0.05 0.009 0.083 0.002 0.03-0.007 72.851787-13.70196 72.851786-13.70196s7.804977-1.399996 11.812966-7.261979c4.005988-5.855983 297.529128-435.172725 297.529128-435.172725 10.27697-15.021956 6.430981-35.497896-8.603975-45.779866" fill="#E0D224" p-id="8851"></path>
  <path d="M584.209288 927.172284c-12.715963 0-23.652931-9.080973-26.005923-21.593937L536.908427 792.255679c-0.225999-1.161997-2.117994-12.104965 4.051988-21.132938 3.964988-5.790983 294.590137-430.863738 297.525128-435.156725a42.971874 42.971874 0 0 1 35.481897-18.719945c8.661975 0 17.03295 2.593992 24.208929 7.500978l108.794681 74.382782c9.477972 6.479981 15.860954 16.254952 17.978947 27.520919 2.116994 11.268967-0.284999 22.689934-6.76598 32.161906 0.002-0.003-293.52214 429.314742-297.528128 435.171725-6.193982 9.057973-17.07995 11.239967-18.300947 11.458966 0.003 0-70.169794 13.196961-72.687787 13.67196l-1.094997 0.188-39.470884 7.414978a26.785922 26.785922 0 0 1-4.891986 0.453999z m289.759152-589.926272a22.979933 22.979933 0 0 0-18.974945 10.010971c-2.933991 4.289987-293.56214 429.367742-297.525128 435.156725-1.222996 1.788995-1.065997 5.306984-0.913998 6.090982l21.305938 113.380668c0.575998 3.062991 3.24699 5.286985 6.349981 5.286984 0.399999 0 0.807998-0.038 1.209997-0.112999l41.198879-7.758978h0.209c3.54099-0.668998 17.284949-3.25399 71.890789-13.52296 1.276996-0.268999 4.255988-1.366996 5.430984-3.083991 4.005988-5.855983 297.528128-435.170725 297.528128-435.170725 3.46399-5.062985 4.747986-11.162967 3.61699-17.17895-1.129997-6.016982-4.543987-11.238967-9.609972-14.703957l-108.794681-74.382782a22.809933 22.809933 0 0 0-12.921962-4.010988z" fill="#12126D" p-id="8852"></path>
  <path d="M600.140242 797.915662L877.34743 392.46885l18.512945 12.656963-277.207187 405.447812zM655.681079 835.892551l277.205188-405.445812 18.514946 12.658963-277.206188 405.444812z" fill="#FFFFFF" p-id="8853"></path>
  <path d="M829.35757 386.860867l12.658963-18.514946L986.797109 467.334631l-12.658963 18.513946zM560.738357 779.089718l12.657963-18.514946 144.993575 99.133709-12.658963 18.513946z" fill="#12126D" p-id="8854"></path>
</svg>