<?xml version="1.0" standalone="no"?><!DOCTYPE svg PUBLIC "-//W3C//DTD SVG 1.1//EN" "http://www.w3.org/Graphics/SVG/1.1/DTD/svg11.dtd"><svg t="1665042524320" class="icon" viewBox="0 0 1055 1024" version="1.1" xmlns="http://www.w3.org/2000/svg" p-id="2733" xmlns:xlink="http://www.w3.org/1999/xlink" width="206.0546875" height="200"><path d="M262.046072 481.914622h214.210399l2.601809-41.785683-47.020648-26.127806h-135.826979zM606.864157 280.775963c5.219292 0 20.892841 73.148455 20.892842 73.148455l60.076714-2.617483-26.127806-75.750264-54.84175 5.219292zM721.798295 406.164358l26.127807 78.367747 31.347098-7.836775-10.454257-70.530972zM274.208746 654.323665a84.903617 84.903617 0 1 0 166.3904 0H274.208746z" fill="#C0EAFF" p-id="2734"></path><path d="M702.206358 668.69631m-74.449359 0a74.449359 74.449359 0 1 0 148.898719 0 74.449359 74.449359 0 1 0-148.898719 0Z" fill="#C0EAFF" p-id="2735"></path><path d="M626.456094 660.640105h-383.531753a15.642202 15.642202 0 0 1-14.827177-10.610993c-21.660845-63.524896-14.639095-124.056143 24.215634-208.928413 12.397778-27.083893 39.43465-44.559901 68.869575-44.5599h105.435967a66.518543 66.518543 0 0 1 66.440176 66.440175v74.809851a121.219231 121.219231 0 0 0 84.21398-37.553824 121.313272 121.313272 0 0 0 33.980255-89.746743l-2.288338-55.829183a15.673549 15.673549 0 0 1 15.657876-16.316165h65.437068c5.611131 0 10.799076 2.993648 13.588968 7.868122 28.588554 49.81054 48.415594 120.780371 53.666233 191.389711l3.745978 1.692743c22.225093 10.093766 63.618937 28.886351 77.834846 85.749989a15.673549 15.673549 0 1 1-30.422359 7.601671c-10.548299-42.177521-39.340609-55.264935-60.374512-64.810126-5.517089-2.507768-10.281848-4.670718-14.278604-7.19416a15.689223 15.689223 0 0 1-7.225506-12.335083c-3.714631-65.201965-20.704759-131.156261-45.813785-178.615768h-39.842162l1.614375 39.513018c1.72409 42.208868-13.416558 82.254787-42.679075 112.724167s-68.634473 47.271425-110.890361 47.271424h-11.6141a15.673549 15.673549 0 0 1-15.67355-15.673549v-90.546095a35.140098 35.140098 0 0 0-35.093077-35.093077h-105.435966a44.685289 44.685289 0 0 0-40.35939 26.268869c-32.914454 71.878897-40.860943 123.632957-26.36291 175.151914h372.011694a15.673549 15.673549 0 0 1 0 31.331425z" fill="#1F87DD" p-id="2736"></path><path d="M467.385242 499.453324h-27.052546a15.673549 15.673549 0 0 1 0-31.347099h27.052546a15.673549 15.673549 0 0 1 0 31.347099zM360.005755 499.453324h-106.376379a15.673549 15.673549 0 0 1 0-31.347099h106.376379a15.673549 15.673549 0 0 1 0 31.347099zM361.102904 767.1262c-45.359252 0-85.185741-29.387905-99.119527-73.101435a15.673549 15.673549 0 1 1 29.858112-9.513844c9.780295 30.673136 37.600845 51.26818 69.261415 51.26818 40.13996 0 72.803637-33.306292 72.803636-74.245603 0-3.542222-0.235103-7.006077-0.705309-10.422911a15.673549 15.673549 0 0 1 31.049301-4.278879c0.658289 4.796106 1.003107 9.717601 1.003107 14.70179 0 58.227236-46.707177 105.592702-104.150735 105.592702zM702.78628 767.1262c-50.045643 0-90.749851-41.252782-90.749851-91.972388s40.704208-91.988061 90.749851-91.988061 90.765524 41.268455 90.765524 91.988061-40.719881 91.972388-90.765524 91.972388z m0-152.61335c-32.757718 0-59.402752 27.193608-59.402753 60.640962 0 33.431681 26.645034 60.625289 59.402753 60.625289s59.418426-27.193608 59.418425-60.625289c0-33.447354-26.645034-60.640962-59.418425-60.640962zM690.043684 369.676335a15.673549 15.673549 0 0 1-15.01526-11.222261l-20.814474-70.217501h-138.444461a15.673549 15.673549 0 0 1 0-31.347099h150.152602a15.673549 15.673549 0 0 1 15.030934 11.222261l24.15294 81.439763a15.673549 15.673549 0 0 1-15.062281 20.124837z" fill="#1F87DD" p-id="2737"></path><path d="M624.590942 369.676335c-7.225506 0-13.730029-5.031209-15.313058-12.382104l-17.240904-80.170205a15.673549 15.673549 0 0 1 30.657462-6.582891l17.240905 80.170205a15.673549 15.673549 0 0 1-15.344405 18.964995zM789.069169 493.356313h-47.020648a15.673549 15.673549 0 0 1 0-31.347099h26.692054l-11.34765-43.10226h-34.936341a15.673549 15.673549 0 0 1 0-31.347099h47.020648a15.673549 15.673549 0 0 1 15.156322 11.692468l19.591937 74.449359a15.673549 15.673549 0 0 1-15.156322 19.654631z" fill="#1F87DD" p-id="2738"></path></svg>